<svg width="308" height="77" viewBox="0 0 308 77" fill="none" xmlns="http://www.w3.org/2000/svg">
<path d="M56.8682 30.3352L57.0186 30.1544C66.1797 19.3533 58.4477 2.52652 44.3074 2.84287C43.5553 2.85793 42.7881 2.90313 42.0209 2.96338C41.2537 3.02364 40.5016 3.11402 39.7494 3.21947C32.1377 4.28904 27.2338 10.0587 26.0454 16.5664C11.7396 19.0219 0.848572 31.465 0.848572 46.4841C0.848572 63.2657 14.4323 76.8687 31.19 76.8687C47.9478 76.8687 61.5315 63.2657 61.5315 46.4841C61.5315 40.5337 59.8016 35.0051 56.8532 30.3201L56.8682 30.3352ZM43.3146 12.2731C45.571 12.2731 47.3912 14.0959 47.3912 16.3555C47.3912 18.6152 45.571 20.4379 43.3146 20.4379C41.0582 20.4379 39.238 18.6152 39.238 16.3555C39.238 14.0959 41.0582 12.2731 43.3146 12.2731ZM41.1334 49.512C40.9529 52.3742 40.4264 55.1159 39.614 57.6618C39.5238 57.9329 39.2831 58.0986 38.9973 58.0986H23.3978C23.112 58.0986 22.8713 57.9179 22.7811 57.6618C21.9688 55.1159 21.4573 52.3742 21.2617 49.512C21.2317 49.1504 21.5325 48.8341 21.9086 48.8341H40.4865C40.8476 48.8341 41.1484 49.1504 41.1334 49.512ZM24.4508 32.5797C24.6614 32.1429 24.8871 31.706 25.1127 31.2842C25.3233 30.9076 25.8197 30.8323 26.1356 31.1336L27.3992 32.399C27.8054 32.8057 27.5196 33.4987 26.9479 33.4987H25.0375C24.5712 33.4987 24.2553 33.0015 24.4659 32.5797H24.4508ZM31.2502 36.5266C31.4157 36.5266 31.5812 36.5868 31.7015 36.7074L39.6893 44.7065C40.0954 45.1132 39.8096 45.8062 39.238 45.8062H21.9086C21.5476 45.8062 21.2467 45.5049 21.2617 45.1283C21.4272 42.2661 21.9236 39.5244 22.7209 36.9785C22.8112 36.7074 23.0518 36.5266 23.3377 36.5266H31.2502ZM12.1458 32.4743C14.2969 29.7025 17.0347 27.4127 20.1787 25.7858C20.4193 25.6652 20.7202 25.7104 20.9158 25.9063L23.0067 28.0002C23.2173 28.2111 23.2474 28.5275 23.097 28.7836C22.2847 30.1393 21.5476 31.5855 20.9158 33.0919C20.8105 33.333 20.5848 33.4836 20.3291 33.4836H12.6422C12.1157 33.4836 11.7998 32.881 12.1307 32.4592L12.1458 32.4743ZM9.45309 36.8881C9.55839 36.6622 9.78403 36.5266 10.0398 36.5266H18.8699C19.2911 36.5266 19.592 36.9333 19.4867 37.3401C18.8098 39.8257 18.3886 42.4619 18.2532 45.1885C18.2381 45.535 17.9523 45.8062 17.6214 45.8062H7.88863C7.51256 45.8062 7.21171 45.4898 7.25683 45.1132C7.51256 42.1908 8.27975 39.4189 9.46814 36.8881H9.45309ZM9.55839 57.7371C8.32488 55.2063 7.52761 52.4345 7.25683 49.512C7.22675 49.1354 7.52761 48.819 7.88863 48.819H17.6063C17.9523 48.819 18.2231 49.0902 18.2381 49.4216C18.3886 52.1482 18.8398 54.7845 19.5318 57.2852C19.6522 57.6919 19.3363 58.0986 18.9151 58.0986H10.115C9.8743 58.0986 9.64865 57.963 9.54335 57.7371H9.55839ZM25.218 70.5417C20.0433 69.2161 15.5605 66.2183 12.3413 62.1509C12.0104 61.7291 12.3112 61.1115 12.8528 61.1115H20.4494C20.7052 61.1115 20.9308 61.2621 21.0361 61.5031C22.2997 64.4859 23.9243 67.1824 25.8649 69.4872C26.271 69.9693 25.8348 70.6773 25.2331 70.5267L25.218 70.5417ZM31.6263 70.2555C31.3856 70.4664 31.0396 70.4664 30.7989 70.2555C28.3018 68.1164 26.1808 65.3144 24.5712 62.0605C24.3606 61.6387 24.6614 61.1265 25.1428 61.1265H37.2824C37.7638 61.1265 38.0646 61.6237 37.854 62.0605C36.2444 65.3144 34.1234 68.1164 31.6263 70.2555ZM50.0839 62.166C46.8647 66.2333 42.3669 69.2311 37.2072 70.5568C36.6055 70.7074 36.1692 69.9994 36.5754 69.5173C38.5159 67.2125 40.1556 64.516 41.4041 61.5333C41.5094 61.2923 41.7351 61.1416 41.9908 61.1416H49.5875C50.114 61.1416 50.4299 61.7592 50.0989 62.181L50.0839 62.166ZM52.8518 57.7521C52.7465 57.9781 52.5208 58.1137 52.2801 58.1137H43.4801C43.0589 58.1137 42.743 57.707 42.8633 57.3002C43.5553 54.8146 44.0066 52.1784 44.157 49.4367C44.172 49.0902 44.4578 48.8341 44.7888 48.8341H54.5065C54.8825 48.8341 55.1834 49.1504 55.1383 49.5271C54.8525 52.4495 54.0702 55.2213 52.8367 57.7521H52.8518ZM54.5366 45.8062H45.6011C45.0295 45.8062 44.7437 45.1132 45.1498 44.7215C47.0151 42.8536 50.7758 39.0875 52.3102 37.566C52.6261 37.2497 53.1677 37.3551 53.3482 37.7619C54.326 40.0516 54.9578 42.5071 55.1834 45.0982C55.2135 45.4748 54.9277 45.8062 54.5516 45.8062H54.5366Z" fill="#200260"/>
<path d="M103.937 36.3308C102.749 35.1407 101.32 34.2218 99.6351 33.574C97.9503 32.9262 96.115 32.5948 94.1294 32.5948C92.1437 32.5948 90.2634 32.9262 88.5936 33.6041C86.9238 34.282 85.4948 35.2009 84.2763 36.391C83.0578 37.5811 82.1101 38.9971 81.4482 40.6391C80.7713 42.2811 80.4404 44.0738 80.4404 46.002C80.4404 48.2617 80.8014 50.2351 81.5385 51.9072C82.2756 53.5793 83.2383 54.9653 84.4117 56.08C85.6001 57.1948 86.9389 58.0233 88.4582 58.5807C89.9625 59.123 91.4818 59.4092 92.9861 59.4092C95.1523 59.4092 97.0176 58.9272 98.5971 57.948C100.177 56.9688 101.305 55.6582 101.997 54.0011H102.102V56.5771C102.102 58.1288 103.351 59.3791 104.9 59.3791C106.449 59.3791 107.698 58.1288 107.698 56.5771V46.2129C107.698 44.1491 107.367 42.2962 106.69 40.6241C106.013 38.9519 105.096 37.5359 103.907 36.3458L103.937 36.3308ZM99.5599 51.5306C98.206 52.9617 96.4008 53.6697 94.1294 53.6697C91.8579 53.6697 90.0528 52.9617 88.6839 51.5306C87.315 50.0995 86.623 48.2617 86.623 45.987C86.623 43.7123 87.2999 41.8744 88.6839 40.4433C90.0528 39.0122 91.8729 38.3042 94.1294 38.3042C96.3858 38.3042 98.206 39.0122 99.5599 40.4433C100.914 41.8744 101.591 43.7123 101.591 45.987C101.591 48.2617 100.914 50.0995 99.5599 51.5306Z" fill="#200260"/>
<path d="M135.257 22.1402C133.572 22.1402 132.203 23.5111 132.203 25.1983V36.8128H132.098C131.27 35.5022 130.127 34.4779 128.683 33.7246C127.224 32.9714 125.539 32.5948 123.613 32.5948C122.109 32.5948 120.59 32.866 119.085 33.4234C117.581 33.9657 116.227 34.8093 115.039 35.924C113.851 37.0388 112.903 38.4247 112.166 40.0968C111.429 41.769 111.068 43.7273 111.068 46.002C111.068 47.9303 111.399 49.7078 112.076 51.3649C112.737 53.0069 113.685 54.423 114.904 55.613C116.122 56.8031 117.566 57.722 119.221 58.3999C120.876 59.0778 122.726 59.4092 124.757 59.4092C126.787 59.4092 128.578 59.0929 130.262 58.4602C131.947 57.8275 133.376 56.9086 134.565 55.7336C135.753 54.5435 136.671 53.1124 137.348 51.4252C138.009 49.738 138.355 47.87 138.355 45.8062V25.2284C138.355 23.5412 136.987 22.1703 135.287 22.1703L135.257 22.1402ZM130.172 51.5306C128.818 52.9617 127.013 53.6697 124.742 53.6697C122.47 53.6697 120.665 52.9617 119.296 51.5306C117.927 50.0995 117.235 48.2617 117.235 45.987C117.235 43.7123 117.912 41.8744 119.296 40.4433C120.665 39.0122 122.485 38.3042 124.742 38.3042C126.998 38.3042 128.818 39.0122 130.172 40.4433C131.526 41.8744 132.203 43.7123 132.203 45.987C132.203 48.2617 131.526 50.0995 130.172 51.5306Z" fill="#200260"/>
<path d="M164.62 33.2727H163.642C162.559 33.2727 161.597 33.9506 161.236 34.975L154.842 52.9466H154.737L148.344 34.975C147.983 33.9506 147.02 33.2727 145.937 33.2727H144.809C143.004 33.2727 141.77 35.0955 142.432 36.7676L150.405 57.0893C150.796 58.0685 151.729 58.7163 152.782 58.7163H156.648C157.701 58.7163 158.648 58.0685 159.024 57.0893L166.997 36.7676C167.659 35.0955 166.425 33.2727 164.62 33.2727Z" fill="#200260"/>
<path d="M192.359 36.391C191.171 35.2009 189.742 34.282 188.057 33.6041C186.372 32.9413 184.537 32.5948 182.551 32.5948C180.566 32.5948 178.685 32.9262 177.016 33.6041C175.346 34.282 173.917 35.2009 172.698 36.391C171.48 37.5811 170.532 38.9971 169.87 40.6391C169.193 42.2811 168.862 44.0738 168.862 46.002C168.862 47.9303 169.193 49.7078 169.87 51.3649C170.532 53.0069 171.48 54.4229 172.698 55.613C173.917 56.8031 175.361 57.722 177.016 58.3999C178.67 59.0778 180.521 59.4092 182.551 59.4092C185.56 59.4092 188.177 58.6861 190.374 57.24C190.99 56.8332 191.562 56.3813 192.089 55.8993C193.803 54.3024 192.72 51.4252 190.374 51.4252H189.817C189.155 51.4252 188.478 51.6059 187.982 52.0729C186.718 53.263 184.898 53.8505 182.551 53.8505C180.626 53.8505 179.046 53.3534 177.798 52.3591C176.549 51.3649 175.707 50.0091 175.301 48.2918V48.1863H196.135V46.0171C196.135 44.0889 195.804 42.3113 195.127 40.6542C194.45 38.9971 193.533 37.5962 192.344 36.4061L192.359 36.391ZM189.652 43.2754H175.451V43.1699C175.932 41.6183 176.775 40.3981 177.993 39.5093C179.212 38.6205 180.731 38.1686 182.551 38.1686C184.372 38.1686 185.846 38.6205 187.079 39.5093C188.313 40.3981 189.17 41.6183 189.652 43.1699V43.2754Z" fill="#200260"/>
<path d="M221.136 35.8186C220.038 34.7339 218.714 33.9355 217.18 33.3932C215.631 32.866 213.916 32.5948 212.035 32.5948C210.155 32.5948 208.44 32.866 206.891 33.4233C205.341 33.9807 204.033 34.7942 202.934 35.8788C201.836 36.9635 200.994 38.3042 200.392 39.901C199.79 41.4978 199.49 43.3658 199.49 45.4898V56.1704C199.49 57.5865 200.633 58.7313 202.047 58.7313H203.055C204.469 58.7313 205.612 57.5865 205.612 56.1704V45.4898C205.612 43.0494 206.199 41.2568 207.357 40.0818C208.53 38.9218 210.08 38.3343 212.035 38.3343C213.991 38.3343 215.555 38.9218 216.714 40.0818C217.872 41.2568 218.459 43.0494 218.459 45.4898V56.1704C218.459 57.5865 219.602 58.7313 221.016 58.7313H222.024C223.438 58.7313 224.581 57.5865 224.581 56.1704V45.4898C224.581 43.3658 224.28 41.4827 223.679 39.8709C223.077 38.259 222.234 36.9032 221.136 35.8336V35.8186Z" fill="#200260"/>
<path d="M243.625 48.9396C243.625 50.687 243.234 51.9223 242.437 52.6152C241.655 53.3233 240.617 53.6697 239.353 53.6697C238.09 53.6697 237.052 53.3082 236.269 52.5851C235.487 51.862 235.081 50.6418 235.081 48.9245V41.6032C235.081 40.0667 236.33 38.8164 237.864 38.8164H245.431C246.965 38.8164 248.213 37.566 248.213 36.0295C248.213 34.4929 246.965 33.2426 245.431 33.2426H235.096V27.5182C235.096 25.9816 233.848 24.7313 232.313 24.7313H231.742C230.207 24.7313 228.959 25.9816 228.959 27.5182V48.8944C228.959 50.6418 229.214 52.1784 229.711 53.504C230.207 54.8297 230.914 55.9143 231.847 56.773C232.78 57.6316 233.878 58.2794 235.141 58.7012C236.405 59.1381 237.819 59.349 239.353 59.349C240.888 59.349 242.302 59.1381 243.565 58.7012C244.829 58.2794 245.927 57.6316 246.86 56.773C247.777 55.9143 248.499 54.8297 248.996 53.504C249.492 52.1784 249.748 50.6418 249.748 48.8944V48.2165H243.625V48.8944V48.9396Z" fill="#200260"/>
<path d="M256.412 33.2727H257.42C258.834 33.2727 259.977 34.4176 259.977 35.8336V56.1553C259.977 57.5714 258.834 58.7163 257.42 58.7163H256.412C254.998 58.7163 253.855 57.5714 253.855 56.1553V35.8336C253.855 34.4176 254.998 33.2727 256.412 33.2727Z" fill="#200260"/>
<path d="M285.174 34.8243C286.889 34.8243 288.288 33.4083 288.243 31.6759C288.243 31.1938 288.212 30.8022 288.197 30.6214C288.077 29.597 287.851 28.663 287.52 27.8044C286.994 26.4034 286.242 25.2284 285.264 24.2793C284.286 23.3303 283.113 22.6373 281.744 22.1703C280.375 21.7033 278.871 21.4774 277.216 21.4774C275.561 21.4774 274.057 21.7033 272.688 22.1703C271.319 22.6373 270.146 23.3303 269.168 24.2643C268.19 25.1983 267.423 26.3582 266.882 27.7742C266.325 29.1903 266.054 30.8323 266.054 32.7153V56.1704C266.054 57.5865 267.198 58.7313 268.612 58.7313H269.619C271.033 58.7313 272.177 57.5865 272.177 56.1704V44.9626C272.177 43.5465 273.32 42.4017 274.734 42.4017H278.104C279.518 42.4017 280.661 41.2568 280.661 39.8407V39.4039C280.661 37.9878 279.518 36.8429 278.104 36.8429H272.177V32.7153C272.177 30.757 272.643 29.356 273.561 28.4973C274.478 27.6387 275.697 27.2018 277.216 27.2018C278.735 27.2018 279.939 27.6236 280.872 28.4672C281.398 28.9493 281.789 29.6272 282.015 30.4858C282.075 30.6967 282.105 31.239 282.12 31.8717C282.18 33.5137 283.534 34.8243 285.189 34.8243H285.174Z" fill="#200260"/>
<path d="M304.579 33.2727H303.571C302.157 33.2727 301.014 34.4176 301.014 35.8336V46.1979C301.014 48.5629 300.412 50.3556 299.209 51.5607C298.005 52.7659 296.471 53.3685 294.576 53.3685C292.68 53.3685 291.056 52.7809 289.897 51.621C289.13 50.8527 288.619 49.8133 288.363 48.5027C288.228 47.8097 288.152 46.8306 288.152 46.8306C288.152 45.4145 287.009 44.2696 285.595 44.2696H284.587C283.173 44.2696 282.03 45.4145 282.03 46.8306C282.03 46.8306 282.075 47.87 282.165 48.6232C282.316 49.8886 282.586 51.0335 282.978 52.0428C283.609 53.6697 284.467 55.0105 285.52 56.0348C286.588 57.0592 287.806 57.8275 289.175 58.3246C290.544 58.8217 291.973 59.0778 293.447 59.0778C295.132 59.0778 296.606 58.7163 297.87 57.9932C299.134 57.2701 300.157 56.2759 300.909 55.0105H301.014V57.9932C301.014 60.4637 300.442 62.2413 299.314 63.3259C298.186 64.4106 296.576 64.9529 294.485 64.9529C291.913 64.9529 290.063 64.1545 288.935 62.5426C288.468 61.8798 287.701 61.5031 286.889 61.5031H286.031C284.046 61.5031 282.752 63.7477 283.88 65.3897C283.88 65.3897 283.895 65.4048 283.91 65.4199C284.677 66.5196 285.61 67.4234 286.693 68.1465C287.776 68.8696 288.98 69.3968 290.288 69.7433C291.612 70.0898 293.011 70.2555 294.485 70.2555C296.23 70.2555 297.885 70.0295 299.419 69.5625C300.969 69.0956 302.308 68.3725 303.451 67.3782C304.594 66.384 305.497 65.1035 306.144 63.5368C306.79 61.9702 307.121 60.072 307.121 57.8425V35.8336C307.121 34.4176 305.978 33.2727 304.564 33.2727H304.579Z" fill="#200260"/>
<path d="M291.868 43.1247C293.613 43.1247 295.027 41.7084 295.027 39.9612C295.027 38.2141 293.613 36.7977 291.868 36.7977C290.123 36.7977 288.709 38.2141 288.709 39.9612C288.709 41.7084 290.123 43.1247 291.868 43.1247Z" fill="#FE57D6"/>
<path d="M44.5782 0.1765C43.826 0.131307 43.0589 0.116241 42.2917 0.116241V0.146371C41.5245 0.146371 40.7723 0.161431 40.0202 0.206623C25.8949 1.03516 19.5769 18.4344 29.5805 28.4521L42.3218 41.2116V41.1664L55.048 28.422C65.0515 18.4043 58.7185 1.00504 44.6083 0.1765H44.5782ZM42.3067 20.7543C39.253 20.7543 36.7709 18.2687 36.7709 15.2106C36.7709 12.1526 39.253 9.66699 42.3067 9.66699C45.3604 9.66699 47.8425 12.1526 47.8425 15.2106C47.8425 18.2687 45.3604 20.7543 42.3067 20.7543Z" fill="#200260"/>
<path d="M44.5782 0.1765C43.826 0.131307 43.0589 0.116241 42.2917 0.116241V0.146371C41.5245 0.146371 40.7723 0.161431 40.0202 0.206623C25.8949 1.03516 19.5769 18.4344 29.5805 28.4521L42.3218 41.2116V41.1664L55.048 28.422C65.0515 18.4043 58.7185 1.00504 44.6083 0.1765H44.5782ZM42.3067 20.7543C39.253 20.7543 36.7709 18.2687 36.7709 15.2106C36.7709 12.1526 39.253 9.66699 42.3067 9.66699C45.3604 9.66699 47.8425 12.1526 47.8425 15.2106C47.8425 18.2687 45.3604 20.7543 42.3067 20.7543Z" fill="url(#paint0_linear_1_5)"/>
<path d="M44.5782 0.1765C43.826 0.131307 43.0589 0.116241 42.2917 0.116241V0.146371C41.5245 0.146371 40.7723 0.161431 40.0202 0.206623C25.8949 1.03516 19.5769 18.4344 29.5805 28.4521L42.3218 41.2116V41.1664L55.048 28.422C65.0515 18.4043 58.7185 1.00504 44.6083 0.1765H44.5782ZM42.3067 20.7543C39.253 20.7543 36.7709 18.2687 36.7709 15.2106C36.7709 12.1526 39.253 9.66699 42.3067 9.66699C45.3604 9.66699 47.8425 12.1526 47.8425 15.2106C47.8425 18.2687 45.3604 20.7543 42.3067 20.7543Z" fill="url(#paint1_radial_1_5)"/>
<defs>
<linearGradient id="paint0_linear_1_5" x1="25.5237" y1="0.11624" x2="59.0318" y2="41.2682" gradientUnits="userSpaceOnUse">
<stop stop-color="#FE57D6"/>
<stop offset="0.49" stop-color="#8E4DFE"/>
<stop offset="1" stop-color="#357AFF"/>
</linearGradient>
<radialGradient id="paint1_radial_1_5" cx="0" cy="0" r="1" gradientUnits="userSpaceOnUse" gradientTransform="translate(63.0932 35.8692) rotate(-137.038) scale(52.4611 46.0589)">
<stop stop-color="#01D1FA"/>
<stop offset="0.61" stop-color="#357AFF" stop-opacity="0"/>
</radialGradient>
</defs>
</svg>
