<svg width="36" height="42" viewBox="0 0 36 42" fill="none" xmlns="http://www.w3.org/2000/svg">
<path d="M20.0112 0.1765C19.2552 0.131307 18.484 0.116241 17.7129 0.116241V0.146371C16.9417 0.146371 16.1856 0.161431 15.4296 0.206623C1.23117 1.03516 -5.11957 18.4344 4.93577 28.4521L17.7431 41.2116V41.1664L30.5353 28.422C40.5906 18.4043 34.2248 1.00504 20.0415 0.1765H20.0112ZM17.728 20.7543C14.6584 20.7543 12.1635 18.2687 12.1635 15.2106C12.1635 12.1526 14.6584 9.66699 17.728 9.66699C20.7975 9.66699 23.2924 12.1526 23.2924 15.2106C23.2924 18.2687 20.7975 20.7543 17.728 20.7543Z" fill="#200260"/>
<path d="M20.0112 0.1765C19.2552 0.131307 18.484 0.116241 17.7129 0.116241V0.146371C16.9417 0.146371 16.1856 0.161431 15.4296 0.206623C1.23117 1.03516 -5.11957 18.4344 4.93577 28.4521L17.7431 41.2116V41.1664L30.5353 28.422C40.5906 18.4043 34.2248 1.00504 20.0415 0.1765H20.0112ZM17.728 20.7543C14.6584 20.7543 12.1635 18.2687 12.1635 15.2106C12.1635 12.1526 14.6584 9.66699 17.728 9.66699C20.7975 9.66699 23.2924 12.1526 23.2924 15.2106C23.2924 18.2687 20.7975 20.7543 17.728 20.7543Z" fill="url(#paint0_linear_1_48)"/>
<path d="M20.0112 0.1765C19.2552 0.131307 18.484 0.116241 17.7129 0.116241V0.146371C16.9417 0.146371 16.1856 0.161431 15.4296 0.206623C1.23117 1.03516 -5.11957 18.4344 4.93577 28.4521L17.7431 41.2116V41.1664L30.5353 28.422C40.5906 18.4043 34.2248 1.00504 20.0415 0.1765H20.0112ZM17.728 20.7543C14.6584 20.7543 12.1635 18.2687 12.1635 15.2106C12.1635 12.1526 14.6584 9.66699 17.728 9.66699C20.7975 9.66699 23.2924 12.1526 23.2924 15.2106C23.2924 18.2687 20.7975 20.7543 17.728 20.7543Z" fill="url(#paint1_radial_1_48)"/>
<defs>
<linearGradient id="paint0_linear_1_48" x1="0.857976" y1="0.11624" x2="34.3306" y2="41.4376" gradientUnits="userSpaceOnUse">
<stop stop-color="#FE57D6"/>
<stop offset="0.49" stop-color="#8E4DFE"/>
<stop offset="1" stop-color="#357AFF"/>
</linearGradient>
<radialGradient id="paint1_radial_1_48" cx="0" cy="0" r="1" gradientUnits="userSpaceOnUse" gradientTransform="translate(38.6221 35.8692) rotate(-137.186) scale(52.6069 46.1693)">
<stop stop-color="#01D1FA"/>
<stop offset="0.61" stop-color="#357AFF" stop-opacity="0"/>
</radialGradient>
</defs>
</svg>
